<?xml version="1.0" encoding="utf-8"?>
<!-- Uploaded to: SVG Repo, www.svgrepo.com, Generator: SVG Repo Mixer Tools -->
<svg width="800px" height="800px" viewBox="0 0 128 128" xmlns="http://www.w3.org/2000/svg" xmlns:xlink="http://www.w3.org/1999/xlink" aria-hidden="true" role="img" class="iconify iconify--noto" preserveAspectRatio="xMidYMid meet">
<path d="M32 80L20 64h-8c-4.42 0-8 3.58-8 8v44c0 4.42 3.58 8 8 8h8l12-16h20V80H32z" fill="#595858">
</path>
<path fill="#3a3a3a" d="M16 64h3v60h-3z">
</path>
<path d="M121.11 73.45L116 76h-16v12h16l5.11 2.55c1.33.66 2.89-.3 2.89-1.79V75.24c0-1.49-1.56-2.46-2.89-1.79z" fill="#595858">
</path>
<path fill="#3f3f3f" d="M64 48h28v28H64z">
</path>
<path fill="#787676" d="M31.5 80h3v28h-3z" opacity=".5">
</path>
<path fill="#3a3a3a" d="M40.75 80h3v28h-3z">
</path>
<circle cx="48" cy="36" r="32" fill="#504f4f">
</circle>
<circle cx="101" cy="46" r="22" fill="#504f4f">
</circle>
<path d="M104 120H52c-4.42 0-8-3.58-8-8V76c0-4.42 3.58-8 8-8h52c4.42 0 8 3.58 8 8v36c0 4.42-3.58 8-8 8z" fill="#504f4f">
</path>
<g fill="#3a3a3a">
<path d="M54 94c1.1 0 2 .9 2 2s-.9 2-2 2s-2-.9-2-2s.9-2 2-2m0-2c-2.21 0-4 1.79-4 4s1.79 4 4 4s4-1.79 4-4s-1.79-4-4-4z">
</path>
<path d="M54 102c1.1 0 2 .9 2 2s-.9 2-2 2s-2-.9-2-2s.9-2 2-2m0-2c-2.21 0-4 1.79-4 4s1.79 4 4 4s4-1.79 4-4s-1.79-4-4-4z">
</path>
</g>
<path d="M64 107c-1.65 0-3-1.35-3-3v-8c0-1.65 1.35-3 3-3h32c1.65 0 3 1.35 3 3v8c0 1.65-1.35 3-3 3H64z" fill="#504f4f">
</path>
<path d="M96 94.5c.83 0 1.5.67 1.5 1.5v8c0 .83-.67 1.5-1.5 1.5H64c-.83 0-1.5-.67-1.5-1.5v-8c0-.83.67-1.5 1.5-1.5h32m0-3H64c-2.48 0-4.5 2.02-4.5 4.5v8c0 2.48 2.02 4.5 4.5 4.5h32c2.48 0 4.5-2.02 4.5-4.5v-8c0-2.48-2.02-4.5-4.5-4.5z" fill="#3a3a3a">
</path>
<circle cx="48" cy="36" r="22.5" fill="#504f4f">
</circle>
<path d="M48 15c11.58 0 21 9.42 21 21s-9.42 21-21 21s-21-9.42-21-21s9.42-21 21-21m0-3c-13.25 0-24 10.75-24 24s10.75 24 24 24s24-10.75 24-24s-10.75-24-24-24z" fill="#3a3a3a">
</path>
<circle cx="101" cy="46" r="12.5" fill="#504f4f">
</circle>
<path d="M101 35c6.07 0 11 4.93 11 11s-4.93 11-11 11s-11-4.93-11-11s4.93-11 11-11m0-3c-7.73 0-14 6.27-14 14s6.27 14 14 14s14-6.27 14-14s-6.27-14-14-14z" fill="#3a3a3a">
</path>
<circle cx="48" cy="36" r="8" fill="#636262">
</circle>
<circle cx="101" cy="46" r="8" fill="#636262">
</circle>
<linearGradient id="IconifyId17ecdb2904d178eab14169" gradientUnits="userSpaceOnUse" x1="54" y1="34.14" x2="54" y2="30.122" gradientTransform="matrix(1 0 0 -1 0 127.89)">
<stop offset="0" stop-color="#ff1744">
</stop>
<stop offset="1" stop-color="#d50000">
</stop>
</linearGradient>
<circle cx="54" cy="96" r="2" fill="url(#IconifyId17ecdb2904d178eab14169)">
</circle>
<linearGradient id="IconifyId17ecdb2904d178eab14170" gradientUnits="userSpaceOnUse" x1="54" y1="26.14" x2="54" y2="22.12" gradientTransform="matrix(1 0 0 -1 0 127.89)">
<stop offset="0" stop-color="#76ff03">
</stop>
<stop offset="1" stop-color="#64dd17">
</stop>
</linearGradient>
<circle cx="54" cy="104" r="2" fill="url(#IconifyId17ecdb2904d178eab14170)">
</circle>
</svg>